<svg width="24" height="24" viewBox="0 0 24 24" fill="none" xmlns="http://www.w3.org/2000/svg">
<g clip-path="url(#clip0_165_121)">
<path d="M14.3118 11.9949L5.33351 20.9737C5.08629 21.2203 4.95029 21.55 4.95029 21.9017C4.95029 22.2535 5.08629 22.583 5.33351 22.83L6.12024 23.6164C6.36707 23.8638 6.69702 24 7.04863 24C7.40024 24 7.7298 23.8638 7.97682 23.6164L18.667 12.9264C18.915 12.6786 19.0508 12.3475 19.0498 11.9955C19.0508 11.642 18.9152 11.3112 18.667 11.0632L7.98678 0.383613C7.73975 0.136198 7.41019 2.72691e-06 7.05839 2.72691e-06C6.70678 2.72691e-06 6.37722 0.136198 6.13 0.383613L5.34346 1.16995C4.83165 1.68176 4.83165 2.51493 5.34346 3.02654L14.3118 11.9949Z" fill="black"/>
</g>
<defs>
<clipPath id="clip0_165_121">
<rect width="24" height="24" fill="white" transform="matrix(-1 0 0 -1 24 24)"/>
</clipPath>
</defs>
</svg>
