<svg width="25" height="33" viewBox="0 0 25 33" fill="none" xmlns="http://www.w3.org/2000/svg">
<path d="M3.02207 0H22.0844C23.6368 0 25 1.27716 25 2.7889V30.9878C25 31.4938 24.8592 31.9156 24.6322 32.2414C24.5003 32.4313 24.3242 32.5863 24.1192 32.693C23.9141 32.7997 23.6861 32.855 23.4549 32.854C23.0118 32.854 22.54 32.6568 22.1043 32.2846L13.5759 25.0435C13.3125 24.8186 12.9341 24.6897 12.5407 24.6897C12.1475 24.6897 11.7699 24.8186 11.5058 25.0442L3.00581 32.2835C2.56857 32.6568 2.12931 32.8542 1.68696 32.8542C0.938919 32.8542 0.209777 32.2772 0.209777 30.9879V2.7889C0.209777 1.27716 1.46959 0 3.02207 0Z" fill="black"/>
</svg>

