<svg width="25" height="24" viewBox="0 0 25 24" fill="none" xmlns="http://www.w3.org/2000/svg">
<path d="M17.5 2C16.95 2 16.5 2.45 16.5 3V4H8.5V3C8.5 2.45 8.05 2 7.5 2C6.95 2 6.5 2.45 6.5 3V4H5.5C4.39 4 3.51 4.9 3.51 6L3.5 20C3.5 21.1 4.39 22 5.5 22H19.5C20.6 22 21.5 21.1 21.5 20V6C21.5 4.9 20.6 4 19.5 4H18.5V3C18.5 2.45 18.05 2 17.5 2ZM19.5 20H5.5V10H19.5V20ZM11.5 13C11.5 12.45 11.95 12 12.5 12C13.05 12 13.5 12.45 13.5 13C13.5 13.55 13.05 14 12.5 14C11.95 14 11.5 13.55 11.5 13ZM7.5 13C7.5 12.45 7.95 12 8.5 12C9.05 12 9.5 12.45 9.5 13C9.5 13.55 9.05 14 8.5 14C7.95 14 7.5 13.55 7.5 13ZM15.5 13C15.5 12.45 15.95 12 16.5 12C17.05 12 17.5 12.45 17.5 13C17.5 13.55 17.05 14 16.5 14C15.95 14 15.5 13.55 15.5 13ZM11.5 17C11.5 16.45 11.95 16 12.5 16C13.05 16 13.5 16.45 13.5 17C13.5 17.55 13.05 18 12.5 18C11.95 18 11.5 17.55 11.5 17ZM7.5 17C7.5 16.45 7.95 16 8.5 16C9.05 16 9.5 16.45 9.5 17C9.5 17.55 9.05 18 8.5 18C7.95 18 7.5 17.55 7.5 17ZM15.5 17C15.5 16.45 15.95 16 16.5 16C17.05 16 17.5 16.45 17.5 17C17.5 17.55 17.05 18 16.5 18C15.95 18 15.5 17.55 15.5 17Z" fill="#CECECE"/>
</svg>
