<svg width="89" height="89" viewBox="0 0 89 89" fill="none" xmlns="http://www.w3.org/2000/svg">
<g clip-path="url(#clip0_163_117)">
<path d="M85.6395 36.7627L49.3373 36.761C47.7342 36.761 46.4349 38.0602 46.4349 39.6632V51.2602C46.4349 52.8629 47.7342 54.1624 49.3371 54.1624H69.7803C67.5418 59.9719 63.3636 64.8372 58.033 67.9285L66.75 83.0184C80.7331 74.9314 89 60.742 89 44.8579C89 42.5962 88.8333 40.9794 88.4999 39.1589C88.2464 37.7758 87.0456 36.7627 85.6395 36.7627Z" fill="#167EE6"/>
<path d="M44.5 71.5869C34.4955 71.5869 25.7617 66.1207 21.071 58.032L5.98163 66.7293C13.6605 80.0379 28.0455 89 44.5 89C52.5721 89 60.1887 86.8266 66.75 83.0391V83.0184L58.0331 67.9284C54.0458 70.241 49.4317 71.5869 44.5 71.5869Z" fill="#12B347"/>
<path d="M66.75 83.0391V83.0184L58.033 67.9284C54.0458 70.2408 49.432 71.587 44.5 71.587V89C52.5721 89 60.189 86.8267 66.75 83.0391Z" fill="#0F993E"/>
<path d="M17.4131 44.5C17.4131 39.5687 18.7588 34.9551 21.0709 30.968L5.9816 22.2707C2.1732 28.8113 0 36.4073 0 44.5C0 52.5927 2.1732 60.1887 5.9816 66.7293L21.0709 58.032C18.7588 54.0449 17.4131 49.4313 17.4131 44.5Z" fill="#FFD500"/>
<path d="M44.5 17.4131C51.024 17.4131 57.0165 19.7312 61.6972 23.5873C62.8519 24.5384 64.5302 24.4698 65.588 23.412L73.8048 15.1952C75.0049 13.9951 74.9194 12.0306 73.6374 10.9185C65.7952 4.11503 55.5915 0 44.5 0C28.0455 0 13.6605 8.96206 5.98163 22.2707L21.071 30.968C25.7617 22.8793 34.4955 17.4131 44.5 17.4131Z" fill="#FF4B26"/>
<path d="M61.6972 23.5873C62.8519 24.5384 64.5304 24.4698 65.588 23.412L73.8048 15.1952C75.0047 13.9951 74.9192 12.0306 73.6374 10.9185C65.7952 4.11486 55.5915 0 44.5 0V17.4131C51.0238 17.4131 57.0165 19.7312 61.6972 23.5873Z" fill="#D93F21"/>
</g>
<defs>
<clipPath id="clip0_163_117">
<rect width="89" height="89" fill="white"/>
</clipPath>
</defs>
</svg>
