<svg width="25" height="20" viewBox="0 0 25 20" fill="none" xmlns="http://www.w3.org/2000/svg">
<path opacity="0.9" d="M14.2086 0C8.52286 0 3.92857 4.47778 3.92857 10H0.5L4.95143 14.3278L5.03143 14.4889L9.64286 10H6.21429C6.21429 5.70556 9.79714 2.22222 14.2143 2.22222C18.6314 2.22222 22.2143 5.70556 22.2143 10C22.2143 14.2944 18.6314 17.7778 14.2143 17.7778C12.0029 17.7778 10.0086 16.9 8.56286 15.4944L6.94571 17.0667C8.80286 18.8778 11.3686 20 14.2086 20C19.8943 20 24.5 15.5222 24.5 10C24.5 4.47778 19.8943 0 14.2086 0ZM13.0714 5.55556V11.1111L17.9629 13.9333L18.7857 12.5833L14.7857 10.2778V5.55556H13.0714Z" fill="#CECECE"/>
</svg>
