<svg width="104" height="22" viewBox="0 0 104 22" fill="none" xmlns="http://www.w3.org/2000/svg">
<g clip-path="url(#clip0_3021_3783)">
<path d="M24.4438 6.38278H26.4789V14.0695H29.8473V15.8631H24.4438V6.38278ZM33.4486 16.0624C32.6812 16.0624 32.0777 15.8251 31.638 15.3507C31.1982 14.8761 30.9784 14.226 30.9784 13.4005V8.53222H32.9573V13.0731C32.9573 13.4622 33.0509 13.7659 33.238 13.9841C33.4252 14.1929 33.6778 14.2973 33.9959 14.2973C34.314 14.2973 34.6181 14.1929 34.9082 13.9841C35.2076 13.7753 35.4556 13.4954 35.6521 13.1442V8.53222H37.6309V15.8631H35.6521V14.8951C35.3807 15.2653 35.0672 15.5547 34.7117 15.7634C34.3654 15.9627 33.9444 16.0624 33.4486 16.0624ZM41.5416 16.0766C40.793 16.0766 40.199 15.754 39.7592 15.1087C39.3194 14.4633 39.0995 13.5855 39.0995 12.4752C39.0995 11.1277 39.4364 10.1028 40.11 9.40053C40.7837 8.6888 41.7521 8.33293 43.0153 8.33293C43.7264 8.33293 44.5591 8.44681 45.5136 8.67456V15.8631H43.6328L43.6749 14.6959H43.6188C43.3755 15.1419 43.0761 15.4835 42.7205 15.7207C42.3743 15.958 41.9814 16.0766 41.5416 16.0766ZM41.9627 14.3257C42.2527 14.3257 42.5381 14.1692 42.8188 13.856C43.0995 13.5428 43.3614 13.1252 43.6047 12.6034V10.2119C43.3054 10.1265 43.006 10.0838 42.7065 10.0838C42.1451 10.0838 41.7193 10.2783 41.4293 10.6674C41.1486 11.0565 41.0083 11.6306 41.0083 12.3898C41.0083 12.9877 41.0925 13.4622 41.2609 13.8133C41.4293 14.1549 41.6633 14.3257 41.9627 14.3257ZM47.442 8.53222H49.421V9.72793H49.5332C49.8046 9.24395 50.0712 8.88808 50.3332 8.66033C50.6046 8.43257 50.9415 8.31869 51.3438 8.31869C51.5122 8.31869 51.6525 8.33767 51.7648 8.37563L51.5543 10.5393C51.311 10.4729 51.1145 10.4396 50.9648 10.4396C50.7496 10.4396 50.5579 10.4823 50.3894 10.5678C50.2303 10.6532 50.0853 10.767 49.9543 10.9094C49.8326 11.0517 49.6549 11.27 49.421 11.5642V15.8631H47.442V8.53222ZM54.9847 12.6745V15.8631H53.0057V5.45752H54.9847V11.2083L57.2443 8.53222H59.5881L56.6969 11.8204L59.7425 15.7777L57.5952 16.0766L54.9847 12.6745ZM62.4708 16.0766C61.7223 16.0766 61.1281 15.754 60.6883 15.1087C60.2486 14.4633 60.0287 13.5855 60.0287 12.4752C60.0287 11.1277 60.3656 10.1028 61.0393 9.40053C61.7129 8.6888 62.6814 8.33293 63.9445 8.33293C64.6556 8.33293 65.4884 8.44681 66.4427 8.67456V15.8631H64.562L64.6042 14.6959H64.548C64.3048 15.1419 64.0053 15.4835 63.6498 15.7207C63.3036 15.958 62.9106 16.0766 62.4708 16.0766ZM62.8919 14.3257C63.182 14.3257 63.4673 14.1692 63.748 13.856C64.0287 13.5428 64.2907 13.1252 64.534 12.6034V10.2119C64.2345 10.1265 63.9351 10.0838 63.6357 10.0838C63.0743 10.0838 62.6486 10.2783 62.3586 10.6674C62.0779 11.0565 61.9375 11.6306 61.9375 12.3898C61.9375 12.9877 62.0217 13.4622 62.1901 13.8133C62.3586 14.1549 62.5924 14.3257 62.8919 14.3257ZM68.3565 8.53222H70.2934V9.67099C70.8641 8.77895 71.6361 8.33293 72.6092 8.33293C73.1612 8.33293 73.629 8.46578 74.0127 8.7315C74.4057 8.98773 74.691 9.35783 74.8688 9.84181C75.1963 9.31987 75.5612 8.94027 75.9636 8.70303C76.3752 8.45629 76.8431 8.33293 77.3671 8.33293C78.1437 8.33293 78.7472 8.57017 79.1776 9.04466C79.6173 9.50966 79.8372 10.1598 79.8372 10.9949V15.8631H77.8582V11.308C77.8582 10.9284 77.7647 10.6342 77.5775 10.4255C77.3998 10.2072 77.1565 10.098 76.8478 10.098C76.4642 10.098 76.1086 10.2593 75.7811 10.582C75.4536 10.9046 75.2103 11.3174 75.0512 11.8204V15.8631H73.0724V11.308C73.0724 10.9379 72.9788 10.6437 72.7917 10.4255C72.6045 10.2072 72.3566 10.098 72.0478 10.098C71.7015 10.098 71.3741 10.2309 71.0654 10.4966C70.7659 10.7529 70.5226 11.1182 70.3355 11.5927V15.8631H68.3565V8.53222ZM81.7337 8.53222H83.6565L83.6144 9.48594H83.6706C83.9138 9.10634 84.2086 8.81691 84.5548 8.61762C84.9103 8.41834 85.3127 8.31869 85.7618 8.31869C86.5758 8.31869 87.212 8.6366 87.6705 9.27242C88.1384 9.89875 88.3722 10.7766 88.3722 11.9058C88.3722 13.2439 88.0261 14.2736 87.3337 14.9947C86.6506 15.7065 85.6729 16.0624 84.4003 16.0624C84.2413 16.0624 84.0027 16.0529 83.6846 16.0339V18.9663H81.7337V8.53222ZM84.5969 14.3115C85.1863 14.3115 85.6308 14.117 85.9302 13.7279C86.239 13.3388 86.3934 12.7694 86.3934 12.0197C86.3934 11.4124 86.2951 10.9379 86.0986 10.5962C85.9115 10.2452 85.6495 10.0696 85.3127 10.0696C85.0133 10.0696 84.7231 10.2025 84.4424 10.4682C84.1617 10.7243 83.9092 11.0944 83.6846 11.5784V14.1834C84.0027 14.2688 84.3068 14.3115 84.5969 14.3115ZM92.3026 16.0624C91.5352 16.0624 90.9317 15.8251 90.492 15.3507C90.0523 14.8761 89.8324 14.226 89.8324 13.4005V8.53222H91.8113V13.0731C91.8113 13.4622 91.9049 13.7659 92.092 13.9841C92.2792 14.1929 92.5318 14.2973 92.8499 14.2973C93.168 14.2973 93.4721 14.1929 93.7622 13.9841C94.0615 13.7753 94.3096 13.4954 94.5061 13.1442V8.53222H96.4849V15.8631H94.5061V14.8951C94.2347 15.2653 93.9212 15.5547 93.5657 15.7634C93.2194 15.9627 92.7984 16.0624 92.3026 16.0624ZM100.396 16.0766C99.937 16.0766 99.4923 16.0291 99.0625 15.9342C98.6412 15.8394 98.281 15.7113 97.9816 15.55L98.164 13.8418C98.4821 14.041 98.8331 14.2023 99.217 14.3257C99.6003 14.4491 99.9608 14.5107 100.298 14.5107C100.616 14.5107 100.882 14.4539 101.097 14.34C101.313 14.2166 101.42 14.041 101.42 13.8133C101.42 13.633 101.346 13.4954 101.196 13.4005C101.046 13.2961 100.76 13.1679 100.339 13.0161L99.9608 12.8738C99.5577 12.722 99.2308 12.5797 98.9781 12.4468C98.7254 12.3044 98.4962 12.0908 98.2904 11.8061C98.0845 11.5215 97.9816 11.1466 97.9816 10.6816C97.9816 9.94145 98.2529 9.36731 98.7956 8.95926C99.3477 8.5417 100.064 8.33293 100.943 8.33293C101.636 8.33293 102.365 8.47052 103.132 8.74574L102.866 10.4396C102.595 10.2783 102.285 10.1502 101.94 10.0553C101.603 9.95093 101.284 9.89875 100.985 9.89875C100.676 9.89875 100.428 9.95093 100.241 10.0553C100.064 10.1598 99.9747 10.3116 99.9747 10.5109C99.9747 10.7006 100.049 10.843 100.2 10.9379C100.349 11.0327 100.602 11.1419 100.957 11.2653C101.238 11.3697 101.401 11.4313 101.449 11.4503C101.841 11.6117 102.169 11.7683 102.431 11.9201C102.693 12.072 102.922 12.2997 103.118 12.6034C103.315 12.8975 103.414 13.2771 103.414 13.7421C103.414 14.5203 103.137 15.1039 102.585 15.493C102.033 15.8821 101.303 16.0766 100.396 16.0766Z" fill="#16558F"/>
<path d="M24.4439 6.38282V6.13168H24.1963V6.38282H24.4439ZM26.4789 6.38282H26.7266V6.13168H26.4789V6.38282ZM26.4789 14.0696H26.2313V14.3207H26.4789V14.0696ZM29.8474 14.0696H30.095V13.8184H29.8474V14.0696ZM29.8474 15.8631V16.1143H30.095V15.8631H29.8474ZM24.4439 15.8631H24.1963V16.1143H24.4439V15.8631ZM24.4439 6.63396H26.4789V6.13168H24.4439V6.63396ZM26.2313 6.38282V14.0696H26.7266V6.38282H26.2313ZM26.4789 14.3207H29.8474V13.8184H26.4789V14.3207ZM29.5997 14.0696V15.8631H30.095V14.0696H29.5997ZM29.8474 15.612H24.4439V16.1143H29.8474V15.612ZM24.6915 15.8631V6.38282H24.1963V15.8631H24.6915ZM30.9785 8.53226V8.28112H30.7309V8.53226H30.9785ZM32.9573 8.53226H33.205V8.28112H32.9573V8.53226ZM33.238 13.9842L33.0512 14.1489L33.053 14.151L33.0548 14.1531L33.238 13.9842ZM34.9083 13.9842L34.7679 13.7771L34.7665 13.7783L34.765 13.7794L34.9083 13.9842ZM35.6521 13.1443L35.8675 13.2682L35.8998 13.2106V13.1443H35.6521ZM35.6521 8.53226V8.28112H35.4045V8.53226H35.6521ZM37.631 8.53226H37.8786V8.28112H37.631V8.53226ZM37.631 15.8631V16.1143H37.8786V15.8631H37.631ZM35.6521 15.8631H35.4045V16.1143H35.6521V15.8631ZM35.6521 14.8951H35.8998V14.1366L35.4533 14.7453L35.6521 14.8951ZM34.7118 15.7635L34.834 15.9819L34.8349 15.9814L34.8358 15.9809L34.7118 15.7635ZM33.4486 15.8113C32.7353 15.8113 32.2024 15.5929 31.8185 15.1786L31.4577 15.5227C31.9533 16.0574 32.6274 16.3136 33.4486 16.3136V15.8113ZM31.8185 15.1786C31.4326 14.7623 31.2261 14.1801 31.2261 13.4005H30.7309C30.7309 14.2722 30.964 14.9901 31.4577 15.5227L31.8185 15.1786ZM31.2261 13.4005V8.53226H30.7309V13.4005H31.2261ZM30.9785 8.7834H32.9573V8.28112H30.9785V8.7834ZM32.7097 8.53226V13.0731H33.205V8.53226H32.7097ZM32.7097 13.0731C32.7097 13.5017 32.8131 13.8713 33.0512 14.1489L33.425 13.8193C33.2888 13.6605 33.205 13.4227 33.205 13.0731H32.7097ZM33.0548 14.1531C33.2959 14.422 33.6191 14.5485 33.996 14.5485V14.0462C33.7366 14.0462 33.5545 13.9639 33.4213 13.8152L33.0548 14.1531ZM33.996 14.5485C34.3715 14.5485 34.7248 14.4242 35.0515 14.1889L34.765 13.7794C34.5116 13.9617 34.2568 14.0462 33.996 14.0462V14.5485ZM35.0485 14.1911C35.3817 13.9588 35.6542 13.6493 35.8675 13.2682L35.4367 13.0203C35.2569 13.3416 35.0336 13.592 34.7679 13.7771L35.0485 14.1911ZM35.8998 13.1443V8.53226H35.4045V13.1443H35.8998ZM35.6521 8.7834H37.631V8.28112H35.6521V8.7834ZM37.3834 8.53226V15.8631H37.8786V8.53226H37.3834ZM37.631 15.612H35.6521V16.1143H37.631V15.612ZM35.8998 15.8631V14.8951H35.4045V15.8631H35.8998ZM35.4533 14.7453C35.2 15.0909 34.9112 15.3562 34.5877 15.5462L34.8358 15.9809C35.2235 15.7532 35.5615 15.4396 35.8508 15.045L35.4533 14.7453ZM34.5896 15.5451C34.2887 15.7183 33.9121 15.8113 33.4486 15.8113V16.3136C33.9769 16.3136 34.4424 16.2073 34.834 15.9819L34.5896 15.5451ZM40.1101 9.40058L40.2876 9.57571L40.2882 9.57511L40.2888 9.5745L40.1101 9.40058ZM45.5136 8.67461H45.7612V8.47569L45.5703 8.43013L45.5136 8.67461ZM45.5136 15.8631V16.1143H45.7612V15.8631H45.5136ZM43.6329 15.8631L43.3855 15.854L43.3761 16.1143H43.6329V15.8631ZM43.675 14.6959L43.9224 14.7051L43.9318 14.4448H43.675V14.6959ZM43.6188 14.6959V14.4448H43.4728L43.4022 14.5743L43.6188 14.6959ZM42.7206 15.7208L42.5845 15.5109L42.5832 15.5118L42.582 15.5126L42.7206 15.7208ZM43.6048 12.6034L43.8287 12.7107L43.8524 12.6598V12.6034H43.6048ZM43.6048 10.2119H43.8524V10.0217L43.6718 9.97018L43.6048 10.2119ZM41.4294 10.6674L41.2319 10.516L41.2307 10.5175L41.2295 10.5191L41.4294 10.6674ZM41.261 13.8133L41.0383 13.9232L41.0388 13.9244L41.0395 13.9256L41.261 13.8133ZM41.5417 15.8255C40.8776 15.8255 40.3583 15.5461 39.9629 14.9659L39.5555 15.2514C40.0396 15.962 40.7086 16.3277 41.5417 16.3277V15.8255ZM39.9629 14.9659C39.5613 14.3767 39.3472 13.5549 39.3472 12.4752H38.852C38.852 13.6162 39.0775 14.5501 39.5555 15.2514L39.9629 14.9659ZM39.3472 12.4752C39.3472 11.1682 39.6736 10.2158 40.2876 9.57571L39.9326 9.22544C39.1993 9.98985 38.852 11.0873 38.852 12.4752H39.3472ZM40.2888 9.5745C40.9028 8.92567 41.7985 8.58411 43.0153 8.58411V8.08183C41.7059 8.08183 40.6646 8.45201 39.9315 9.22664L40.2888 9.5745ZM43.0153 8.58411C43.7017 8.58411 44.5146 8.6942 45.4569 8.91907L45.5703 8.43013C44.6038 8.19949 43.7512 8.08183 43.0153 8.08183V8.58411ZM45.266 8.67461V15.8631H45.7612V8.67461H45.266ZM45.5136 15.612H43.6329V16.1143H45.5136V15.612ZM43.8803 15.8723L43.9224 14.7051L43.4276 14.6867L43.3855 15.854L43.8803 15.8723ZM43.675 14.4448H43.6188V14.9471H43.675V14.4448ZM43.4022 14.5743C43.1748 14.9912 42.901 15.2998 42.5845 15.5109L42.8567 15.9306C43.2514 15.6672 43.5763 15.2926 43.8356 14.8175L43.4022 14.5743ZM42.582 15.5126C42.2789 15.7204 41.9347 15.8255 41.5417 15.8255V16.3277C42.0281 16.3277 42.4699 16.1956 42.8592 15.9288L42.582 15.5126ZM41.9628 14.5769C42.3486 14.5769 42.6954 14.367 43.0021 14.025L42.6356 13.6871C42.3808 13.9713 42.157 14.0746 41.9628 14.0746V14.5769ZM43.0021 14.025C43.3041 13.6881 43.5784 13.2475 43.8287 12.7107L43.3809 12.496C43.1446 13.0031 42.8951 13.3976 42.6356 13.6871L43.0021 14.025ZM43.8524 12.6034V10.2119H43.3571V12.6034H43.8524ZM43.6718 9.97018C43.3515 9.8788 43.0295 9.8327 42.7066 9.8327V10.335C42.9825 10.335 43.2593 10.3743 43.5378 10.4537L43.6718 9.97018ZM42.7066 9.8327C42.0823 9.8327 41.577 10.0531 41.2319 10.516L41.6269 10.8189C41.8619 10.5037 42.2081 10.335 42.7066 10.335V9.8327ZM41.2295 10.5191C40.9045 10.9697 40.7607 11.6059 40.7607 12.3898H41.256C41.256 11.6555 41.3928 11.1435 41.6293 10.8158L41.2295 10.5191ZM40.7607 12.3898C40.7607 13.0074 40.8471 13.5245 41.0383 13.9232L41.4837 13.7035C41.3381 13.3999 41.256 12.968 41.256 12.3898H40.7607ZM41.0395 13.9256C41.2369 14.3261 41.5438 14.5769 41.9628 14.5769V14.0746C41.7829 14.0746 41.6218 13.9838 41.4825 13.701L41.0395 13.9256ZM47.4421 8.53226V8.28112H47.1945V8.53226H47.4421ZM49.421 8.53226H49.6687V8.28112H49.421V8.53226ZM49.421 9.72797H49.1734V9.97912H49.421V9.72797ZM49.5333 9.72797V9.97912H49.6774L49.7486 9.85211L49.5333 9.72797ZM50.3333 8.66037L50.1754 8.46689L50.1738 8.46828L50.1721 8.46968L50.3333 8.66037ZM51.7649 8.37568L52.0113 8.40034L52.0307 8.20082L51.8432 8.13742L51.7649 8.37568ZM51.5543 10.5393L51.4899 10.7818L51.7721 10.8589L51.8008 10.564L51.5543 10.5393ZM50.3894 10.5679L50.2787 10.3432L50.2761 10.3445L50.2735 10.3459L50.3894 10.5679ZM49.9543 10.9094L49.7734 10.7381L49.7702 10.7415L49.7672 10.745L49.9543 10.9094ZM49.421 11.5643L49.2283 11.4066L49.1734 11.4756V11.5643H49.421ZM49.421 15.8631V16.1143H49.6687V15.8631H49.421ZM47.4421 15.8631H47.1945V16.1143H47.4421V15.8631ZM47.4421 8.7834H49.421V8.28112H47.4421V8.7834ZM49.1734 8.53226V9.72797H49.6687V8.53226H49.1734ZM49.421 9.97912H49.5333V9.47683H49.421V9.97912ZM49.7486 9.85211C50.0132 9.38023 50.2631 9.05217 50.4944 8.85105L50.1721 8.46968C49.8795 8.72408 49.5962 9.10774 49.318 9.60383L49.7486 9.85211ZM50.4912 8.85385C50.7118 8.66861 50.9905 8.56988 51.3439 8.56988V8.0676C50.8925 8.0676 50.4974 8.19661 50.1754 8.46689L50.4912 8.85385ZM51.3439 8.56988C51.4959 8.56988 51.6077 8.58728 51.6866 8.61393L51.8432 8.13742C51.6975 8.08815 51.5286 8.0676 51.3439 8.0676V8.56988ZM51.5185 8.35101L51.3079 10.5147L51.8008 10.564L52.0113 8.40034L51.5185 8.35101ZM51.6187 10.2968C51.3666 10.228 51.1462 10.1885 50.9649 10.1885V10.6908C51.0831 10.6908 51.2555 10.7178 51.4899 10.7818L51.6187 10.2968ZM50.9649 10.1885C50.7168 10.1885 50.4861 10.238 50.2787 10.3432L50.5002 10.7925C50.6296 10.7268 50.7827 10.6908 50.9649 10.6908V10.1885ZM50.2735 10.3459C50.0886 10.4452 49.9218 10.5767 49.7734 10.7381L50.1354 11.0808C50.2489 10.9575 50.3722 10.8613 50.5053 10.7898L50.2735 10.3459ZM49.7672 10.745C49.6426 10.8908 49.4626 11.1119 49.2283 11.4066L49.6138 11.7219C49.8473 11.4283 50.0229 11.2128 50.1415 11.074L49.7672 10.745ZM49.1734 11.5643V15.8631H49.6687V11.5643H49.1734ZM49.421 15.612H47.4421V16.1143H49.421V15.612ZM47.6897 15.8631V8.53226H47.1945V15.8631H47.6897ZM54.9847 12.6745L55.1802 12.5203L54.7371 11.9429V12.6745H54.9847ZM54.9847 15.8631V16.1143H55.2324V15.8631H54.9847ZM53.0058 15.8631H52.7582V16.1143H53.0058V15.8631ZM53.0058 5.45756V5.20642H52.7582V5.45756H53.0058ZM54.9847 5.45756H55.2324V5.20642H54.9847V5.45756ZM54.9847 11.2084H54.7371V11.8878L55.1728 11.3717L54.9847 11.2084ZM57.2443 8.53226V8.28112H57.1304L57.0563 8.3689L57.2443 8.53226ZM59.5882 8.53226L59.773 8.69941L60.1408 8.28112H59.5882V8.53226ZM56.697 11.8205L56.5122 11.6533L56.3747 11.8098L56.5018 11.975L56.697 11.8205ZM59.7426 15.7777L59.7763 16.0266L60.2026 15.9672L59.9378 15.6231L59.7426 15.7777ZM57.5952 16.0766L57.3998 16.2309L57.4875 16.3451L57.6289 16.3254L57.5952 16.0766ZM54.7371 12.6745V15.8631H55.2324V12.6745H54.7371ZM54.9847 15.612H53.0058V16.1143H54.9847V15.612ZM53.2534 15.8631V5.45756H52.7582V15.8631H53.2534ZM53.0058 5.7087H54.9847V5.20642H53.0058V5.7087ZM54.7371 5.45756V11.2084H55.2324V5.45756H54.7371ZM55.1728 11.3717L57.4324 8.69561L57.0563 8.3689L54.7967 11.045L55.1728 11.3717ZM57.2443 8.7834H59.5882V8.28112H57.2443V8.7834ZM59.4035 8.36511L56.5122 11.6533L56.8818 11.9876L59.773 8.69941L59.4035 8.36511ZM56.5018 11.975L59.5474 15.9322L59.9378 15.6231L56.8922 11.666L56.5018 11.975ZM59.7089 15.5289L57.5616 15.8279L57.6289 16.3254L59.7763 16.0266L59.7089 15.5289ZM57.7907 15.9224L55.1802 12.5203L54.7893 12.8288L57.3998 16.2309L57.7907 15.9224ZM61.0393 9.40058L61.2168 9.57571L61.2173 9.57511L61.2179 9.5745L61.0393 9.40058ZM66.4428 8.67461H66.6904V8.47569L66.4995 8.43013L66.4428 8.67461ZM66.4428 15.8631V16.1143H66.6904V15.8631H66.4428ZM64.5621 15.8631L64.3146 15.854L64.3052 16.1143H64.5621V15.8631ZM64.6043 14.6959L64.8517 14.7051L64.8611 14.4448H64.6043V14.6959ZM64.5481 14.6959V14.4448H64.4021L64.3314 14.5743L64.5481 14.6959ZM63.6498 15.7208L63.5137 15.5109L63.5125 15.5118L63.5112 15.5126L63.6498 15.7208ZM64.534 12.6034L64.7579 12.7107L64.7816 12.6598V12.6034H64.534ZM64.534 10.2119H64.7816V10.0217L64.6011 9.97018L64.534 10.2119ZM62.3586 10.6674L62.161 10.516L62.16 10.5175L62.1588 10.5191L62.3586 10.6674ZM62.1902 13.8133L61.9675 13.9232L61.9681 13.9244L61.9687 13.9256L62.1902 13.8133ZM62.4709 15.8255C61.8069 15.8255 61.2874 15.5461 60.8921 14.9659L60.4848 15.2514C60.9689 15.962 61.6379 16.3277 62.4709 16.3277V15.8255ZM60.8921 14.9659C60.4906 14.3767 60.2764 13.5549 60.2764 12.4752H59.7811C59.7811 13.6162 60.0068 14.5501 60.4848 15.2514L60.8921 14.9659ZM60.2764 12.4752C60.2764 11.1682 60.6027 10.2158 61.2168 9.57571L60.8618 9.22544C60.1285 9.98985 59.7811 11.0873 59.7811 12.4752H60.2764ZM61.2179 9.5745C61.8321 8.92567 62.7277 8.58411 63.9446 8.58411V8.08183C62.6351 8.08183 61.5939 8.45201 60.8606 9.22664L61.2179 9.5745ZM63.9446 8.58411C64.6309 8.58411 65.4439 8.6942 66.3861 8.91907L66.4995 8.43013C65.533 8.19949 64.6804 8.08183 63.9446 8.08183V8.58411ZM66.1951 8.67461V15.8631H66.6904V8.67461H66.1951ZM66.4428 15.612H64.5621V16.1143H66.4428V15.612ZM64.8096 15.8723L64.8517 14.7051L64.3567 14.6867L64.3146 15.854L64.8096 15.8723ZM64.6043 14.4448H64.5481V14.9471H64.6043V14.4448ZM64.3314 14.5743C64.1041 14.9912 63.8302 15.2998 63.5137 15.5109L63.7859 15.9306C64.1805 15.6672 64.5056 15.2926 64.7647 14.8175L64.3314 14.5743ZM63.5112 15.5126C63.2082 15.7204 62.864 15.8255 62.4709 15.8255V16.3277C62.9573 16.3277 63.3991 16.1956 63.7885 15.9288L63.5112 15.5126ZM62.8919 14.5769C63.2778 14.5769 63.6247 14.367 63.9313 14.025L63.5648 13.6871C63.3101 13.9713 63.0861 14.0746 62.8919 14.0746V14.5769ZM63.9313 14.025C64.2332 13.6881 64.5077 13.2475 64.7579 12.7107L64.3102 12.496C64.0738 13.0031 63.8243 13.3976 63.5648 13.6871L63.9313 14.025ZM64.7816 12.6034V10.2119H64.2864V12.6034H64.7816ZM64.6011 9.97018C64.2807 9.8788 63.9588 9.8327 63.6358 9.8327V10.335C63.9117 10.335 64.1885 10.3743 64.467 10.4537L64.6011 9.97018ZM63.6358 9.8327C63.0115 9.8327 62.5061 10.0531 62.161 10.516L62.5561 10.8189C62.7912 10.5037 63.1373 10.335 63.6358 10.335V9.8327ZM62.1588 10.5191C61.8338 10.9697 61.69 11.6059 61.69 12.3898H62.1852C62.1852 11.6555 62.322 11.1435 62.5584 10.8158L62.1588 10.5191ZM61.69 12.3898C61.69 13.0074 61.7762 13.5245 61.9675 13.9232L62.4128 13.7035C62.2672 13.3999 62.1852 12.968 62.1852 12.3898H61.69ZM61.9687 13.9256C62.1662 14.3261 62.4729 14.5769 62.8919 14.5769V14.0746C62.712 14.0746 62.5511 13.9838 62.4116 13.701L61.9687 13.9256ZM68.3566 8.53226V8.28112H68.109V8.53226H68.3566ZM70.2934 8.53226H70.5411V8.28112H70.2934V8.53226ZM70.2934 9.67103H70.0458V10.5193L70.5011 9.80775L70.2934 9.67103ZM74.0128 8.73154L73.8731 8.93894L73.8759 8.94091L73.8789 8.94279L74.0128 8.73154ZM74.8689 9.84185L74.6368 9.92952L74.8106 10.4025L75.0777 9.97668L74.8689 9.84185ZM75.9636 8.70307L76.088 8.92018L76.0888 8.91974L76.0896 8.91929L75.9636 8.70307ZM79.1776 9.04471L78.9954 9.21474L78.9972 9.21667L78.9989 9.21855L79.1776 9.04471ZM79.8373 15.8631V16.1143H80.0849V15.8631H79.8373ZM77.8583 15.8631H77.6107V16.1143H77.8583V15.8631ZM77.5776 10.4255L77.3867 10.5854L77.3905 10.59L77.3944 10.5944L77.5776 10.4255ZM75.0513 11.8205L74.8156 11.7438L74.8037 11.7812V11.8205H75.0513ZM75.0513 15.8631V16.1143H75.2989V15.8631H75.0513ZM73.0724 15.8631H72.8248V16.1143H73.0724V15.8631ZM71.0654 10.4966L71.2251 10.6886L71.2256 10.6881L71.0654 10.4966ZM70.3355 11.5927L70.1057 11.4994L70.0879 11.5444V11.5927H70.3355ZM70.3355 15.8631V16.1143H70.5832V15.8631H70.3355ZM68.3566 15.8631H68.109V16.1143H68.3566V15.8631ZM68.3566 8.7834H70.2934V8.28112H68.3566V8.7834ZM70.0458 8.53226V9.67103H70.5411V8.53226H70.0458ZM70.5011 9.80775C71.0305 8.98047 71.7275 8.58411 72.6093 8.58411V8.08183C71.5448 8.08183 70.698 8.57751 70.0857 9.53432L70.5011 9.80775ZM72.6093 8.58411C73.1211 8.58411 73.5378 8.70675 73.8731 8.93894L74.1523 8.52415C73.7204 8.2249 73.2015 8.08183 72.6093 8.08183V8.58411ZM73.8789 8.94279C74.2227 9.16699 74.4759 9.49157 74.6368 9.92952L75.1009 9.75417C74.9062 9.22417 74.5887 8.80854 74.1466 8.52028L73.8789 8.94279ZM75.0777 9.97668C75.3903 9.47848 75.7289 9.13196 76.088 8.92018L75.8391 8.48596C75.3936 8.74867 75.0024 9.16135 74.66 9.70702L75.0777 9.97668ZM76.0896 8.91929C76.4596 8.69757 76.8831 8.58411 77.3671 8.58411V8.08183C76.8032 8.08183 76.2911 8.21511 75.8376 8.48686L76.0896 8.91929ZM77.3671 8.58411C78.0911 8.58411 78.6221 8.80313 78.9954 9.21474L79.3599 8.87466C78.8725 8.3373 78.1965 8.08183 77.3671 8.08183V8.58411ZM78.9989 9.21855C79.3826 9.62417 79.5897 10.2047 79.5897 10.9949H80.0849C80.0849 10.1148 79.8522 9.39524 79.3563 8.87086L78.9989 9.21855ZM79.5897 10.9949V15.8631H80.0849V10.9949H79.5897ZM79.8373 15.612H77.8583V16.1143H79.8373V15.612ZM78.1059 15.8631V11.308H77.6107V15.8631H78.1059ZM78.1059 11.308C78.1059 10.8878 78.0019 10.5256 77.7608 10.2565L77.3944 10.5944C77.5276 10.743 77.6107 10.969 77.6107 11.308H78.1059ZM77.7686 10.2655C77.5384 9.9829 77.2215 9.84693 76.8478 9.84693V10.3492C77.0916 10.3492 77.2613 10.4315 77.3867 10.5854L77.7686 10.2655ZM76.8478 9.84693C76.3877 9.84693 75.9729 10.043 75.6086 10.4019L75.9537 10.7621C76.2443 10.4758 76.5406 10.3492 76.8478 10.3492V9.84693ZM75.6086 10.4019C75.2481 10.7571 74.9852 11.2072 74.8156 11.7438L75.2871 11.8972C75.4355 11.4279 75.6593 11.0524 75.9537 10.7621L75.6086 10.4019ZM74.8037 11.8205V15.8631H75.2989V11.8205H74.8037ZM75.0513 15.612H73.0724V16.1143H75.0513V15.612ZM73.32 15.8631V11.308H72.8248V15.8631H73.32ZM73.32 11.308C73.32 10.8947 73.2149 10.5362 72.9785 10.2607L72.6048 10.5903C72.7428 10.7512 72.8248 10.9811 72.8248 11.308H73.32ZM72.9785 10.2607C72.7401 9.98264 72.4216 9.84693 72.0479 9.84693V10.3492C72.2916 10.3492 72.4689 10.4317 72.6048 10.5903L72.9785 10.2607ZM72.0479 9.84693C71.6333 9.84693 71.2507 10.0078 70.9052 10.3052L71.2256 10.6881C71.4976 10.454 71.77 10.3492 72.0479 10.3492V9.84693ZM70.9057 10.3047C70.5676 10.594 70.3036 10.9973 70.1057 11.4994L70.5654 11.6859C70.7417 11.2391 70.9643 10.9117 71.2251 10.6886L70.9057 10.3047ZM70.0879 11.5927V15.8631H70.5832V11.5927H70.0879ZM70.3355 15.612H68.3566V16.1143H70.3355V15.612ZM68.6042 15.8631V8.53226H68.109V15.8631H68.6042ZM81.7337 8.53226V8.28112H81.4861V8.53226H81.7337ZM83.6566 8.53226L83.904 8.54349L83.9156 8.28112H83.6566V8.53226ZM83.6145 9.48598L83.3671 9.47474L83.3555 9.73712H83.6145V9.48598ZM83.6706 9.48598V9.73712H83.805L83.8782 9.62285L83.6706 9.48598ZM84.5548 8.61767L84.4351 8.39786L84.4338 8.39854L84.4326 8.39925L84.5548 8.61767ZM87.6706 9.27246L87.4707 9.42072L87.472 9.42242L87.4733 9.42411L87.6706 9.27246ZM83.6847 16.0339L83.6991 15.7833L83.4371 15.7676V16.0339H83.6847ZM83.6847 18.9663V19.2175H83.9323V18.9663H83.6847ZM81.7337 18.9663H81.4861V19.2175H81.7337V18.9663ZM85.9303 13.7279L85.7373 13.5704L85.7362 13.5719L85.7351 13.5734L85.9303 13.7279ZM86.0987 10.5963L85.8809 10.7157L85.8828 10.7193L85.8847 10.7229L86.0987 10.5963ZM84.4425 10.4682L84.6082 10.6549L84.6099 10.6533L84.6115 10.6517L84.4425 10.4682ZM83.6847 11.5785L83.4605 11.4716L83.4371 11.5223V11.5785H83.6847ZM83.6847 14.1834H83.4371V14.3768L83.6213 14.4262L83.6847 14.1834ZM81.7337 8.7834H83.6566V8.28112H81.7337V8.7834ZM83.4092 8.52102L83.3671 9.47474L83.8619 9.49721L83.904 8.54349L83.4092 8.52102ZM83.6145 9.73712H83.6706V9.23484H83.6145V9.73712ZM83.8782 9.62285C84.1026 9.27283 84.3693 9.0132 84.677 8.83608L84.4326 8.39925C84.0479 8.62069 83.7252 8.93994 83.463 9.34911L83.8782 9.62285ZM84.6746 8.83748C84.9897 8.66084 85.3501 8.56988 85.7618 8.56988V8.0676C85.2753 8.0676 84.8311 8.17591 84.4351 8.39786L84.6746 8.83748ZM85.7618 8.56988C86.5013 8.56988 87.0614 8.85314 87.4707 9.42072L87.8704 9.12421C87.3628 8.42015 86.6504 8.0676 85.7618 8.0676V8.56988ZM87.4733 9.42411C87.8969 9.99137 88.1247 10.8082 88.1247 11.9058H88.6199C88.6199 10.745 88.3799 9.8062 87.868 9.1208L87.4733 9.42411ZM88.1247 11.9058C88.1247 13.2007 87.7905 14.1591 87.1563 14.8196L87.5112 15.17C88.2619 14.3881 88.6199 13.2872 88.6199 11.9058H88.1247ZM87.1563 14.8196C86.5327 15.4693 85.627 15.8113 84.4004 15.8113V16.3136C85.7188 16.3136 86.7687 15.9437 87.5112 15.17L87.1563 14.8196ZM84.4004 15.8113C84.249 15.8113 84.0162 15.8022 83.6991 15.7833L83.6701 16.2846C83.9893 16.3037 84.2338 16.3136 84.4004 16.3136V15.8113ZM83.4371 16.0339V18.9663H83.9323V16.0339H83.4371ZM83.6847 18.7152H81.7337V19.2175H83.6847V18.7152ZM81.9814 18.9663V8.53226H81.4861V18.9663H81.9814ZM84.5969 14.5627C85.2447 14.5627 85.769 14.3455 86.1254 13.8824L85.7351 13.5734C85.4926 13.8885 85.128 14.0604 84.5969 14.0604V14.5627ZM86.1231 13.8853C86.4812 13.4342 86.6411 12.7992 86.6411 12.0198H86.1458C86.1458 12.7396 85.9968 13.2435 85.7373 13.5704L86.1231 13.8853ZM86.6411 12.0198C86.6411 11.3898 86.5399 10.8651 86.3125 10.4697L85.8847 10.7229C86.0504 11.0108 86.1458 11.435 86.1458 12.0198H86.6411ZM86.3165 10.4768C86.0949 10.0611 85.7576 9.81846 85.3127 9.81846V10.3207C85.5415 10.3207 85.7281 10.4292 85.8809 10.7157L86.3165 10.4768ZM85.3127 9.81846C84.9344 9.81846 84.5867 9.98816 84.2736 10.2846L84.6115 10.6517C84.8598 10.4168 85.0923 10.3207 85.3127 10.3207V9.81846ZM84.2769 10.2815C83.964 10.5671 83.694 10.9685 83.4605 11.4716L83.9087 11.6854C84.1244 11.2205 84.3597 10.8817 84.6082 10.6549L84.2769 10.2815ZM83.4371 11.5785V14.1834H83.9323V11.5785H83.4371ZM83.6213 14.4262C83.9574 14.5164 84.2828 14.5627 84.5969 14.5627V14.0604C84.3309 14.0604 84.0482 14.0213 83.748 13.9407L83.6213 14.4262ZM89.8325 8.53226V8.28112H89.5848V8.53226H89.8325ZM91.8113 8.53226H92.059V8.28112H91.8113V8.53226ZM92.092 13.9842L91.9052 14.1489L91.907 14.151L91.9088 14.1531L92.092 13.9842ZM93.7623 13.9842L93.6219 13.7771L93.6204 13.7783L93.619 13.7794L93.7623 13.9842ZM94.5061 13.1443L94.7215 13.2682L94.7538 13.2106V13.1443H94.5061ZM94.5061 8.53226V8.28112H94.2585V8.53226H94.5061ZM96.485 8.53226H96.7326V8.28112H96.485V8.53226ZM96.485 15.8631V16.1143H96.7326V15.8631H96.485ZM94.5061 15.8631H94.2585V16.1143H94.5061V15.8631ZM94.5061 14.8951H94.7538V14.1366L94.3073 14.7453L94.5061 14.8951ZM93.5658 15.7635L93.688 15.9819L93.6889 15.9814L93.6898 15.9809L93.5658 15.7635ZM92.3026 15.8113C91.5893 15.8113 91.0564 15.5929 90.6725 15.1786L90.3117 15.5227C90.8073 16.0574 91.4814 16.3136 92.3026 16.3136V15.8113ZM90.6725 15.1786C90.2866 14.7623 90.0801 14.1801 90.0801 13.4005H89.5848C89.5848 14.2722 89.818 14.9901 90.3117 15.5227L90.6725 15.1786ZM90.0801 13.4005V8.53226H89.5848V13.4005H90.0801ZM89.8325 8.7834H91.8113V8.28112H89.8325V8.7834ZM91.5637 8.53226V13.0731H92.059V8.53226H91.5637ZM91.5637 13.0731C91.5637 13.5017 91.6671 13.8713 91.9052 14.1489L92.2789 13.8193C92.1428 13.6605 92.059 13.4227 92.059 13.0731H91.5637ZM91.9088 14.1531C92.1499 14.422 92.4731 14.5485 92.85 14.5485V14.0462C92.5906 14.0462 92.4085 13.9639 92.2753 13.8152L91.9088 14.1531ZM92.85 14.5485C93.2254 14.5485 93.5787 14.4242 93.9055 14.1889L93.619 13.7794C93.3656 13.9617 93.1107 14.0462 92.85 14.0462V14.5485ZM93.9025 14.1911C94.2357 13.9588 94.5082 13.6493 94.7215 13.2682L94.2907 13.0203C94.1109 13.3416 93.8876 13.592 93.6219 13.7771L93.9025 14.1911ZM94.7538 13.1443V8.53226H94.2585V13.1443H94.7538ZM94.5061 8.7834H96.485V8.28112H94.5061V8.7834ZM96.2374 8.53226V15.8631H96.7326V8.53226H96.2374ZM96.485 15.612H94.5061V16.1143H96.485V15.612ZM94.7538 15.8631V14.8951H94.2585V15.8631H94.7538ZM94.3073 14.7453C94.054 15.0909 93.7652 15.3562 93.4417 15.5462L93.6898 15.9809C94.0775 15.7532 94.4155 15.4396 94.7048 15.045L94.3073 14.7453ZM93.4435 15.5451C93.1427 15.7183 92.7661 15.8113 92.3026 15.8113V16.3136C92.8309 16.3136 93.2964 16.2073 93.688 15.9819L93.4435 15.5451ZM99.0625 15.9343L99.0086 16.1795L99.0097 16.1797L99.0625 15.9343ZM97.9816 15.55L97.7355 15.5229L97.7174 15.692L97.8654 15.7717L97.9816 15.55ZM98.1641 13.8418L98.2942 13.6282L97.9602 13.4189L97.9179 13.8147L98.1641 13.8418ZM101.097 14.34L101.212 14.5627L101.216 14.5607L101.219 14.5586L101.097 14.34ZM101.196 13.4005L101.055 13.6075L101.06 13.6106L101.064 13.6135L101.196 13.4005ZM100.339 13.0162L100.253 13.2517L100.255 13.2523L100.257 13.2529L100.339 13.0162ZM98.9781 12.4468L98.8579 12.6663L98.861 12.6681L98.8641 12.6697L98.9781 12.4468ZM98.7957 8.9593L98.9432 9.16105L98.9437 9.16061L98.7957 8.9593ZM103.132 8.74578L103.377 8.78537L103.41 8.57877L103.215 8.509L103.132 8.74578ZM102.866 10.4397L102.74 10.6564L103.053 10.8422L103.111 10.4793L102.866 10.4397ZM101.94 10.0553L101.868 10.2955L101.872 10.2967L101.874 10.2978L101.94 10.0553ZM100.241 10.0553L100.122 9.83531L100.119 9.83665L100.117 9.83802L100.241 10.0553ZM100.957 11.2653L101.042 11.0296L101.04 11.0286L101.038 11.0277L100.957 11.2653ZM101.449 11.4504L101.542 11.2176L101.541 11.2172L101.449 11.4504ZM103.119 12.6034L102.912 12.7411L102.912 12.7427L102.913 12.7443L103.119 12.6034ZM100.396 15.8255C99.9539 15.8255 99.5271 15.7799 99.115 15.6889L99.0097 16.1797C99.4577 16.2786 99.9203 16.3277 100.396 16.3277V15.8255ZM99.116 15.6891C98.7112 15.5979 98.373 15.4765 98.0978 15.3282L97.8654 15.7717C98.189 15.9461 98.5714 16.0809 99.0086 16.1795L99.116 15.6891ZM98.2278 15.577L98.4103 13.8689L97.9179 13.8147L97.7355 15.5229L98.2278 15.577ZM98.034 14.0555C98.3707 14.2664 98.7403 14.436 99.1418 14.5651L99.2913 14.0864C98.9258 13.9688 98.5937 13.8158 98.2942 13.6282L98.034 14.0555ZM99.1418 14.5651C99.5449 14.6948 99.9312 14.7619 100.298 14.7619V14.2596C99.9906 14.2596 99.6558 14.2034 99.2913 14.0864L99.1418 14.5651ZM100.298 14.7619C100.643 14.7619 100.952 14.7001 101.212 14.5627L100.983 14.1174C100.813 14.2076 100.588 14.2596 100.298 14.2596V14.7619ZM101.219 14.5586C101.503 14.3962 101.667 14.1422 101.667 13.8133H101.172C101.172 13.94 101.123 14.0371 100.975 14.1214L101.219 14.5586ZM101.667 13.8133C101.667 13.5472 101.55 13.3287 101.327 13.1876L101.064 13.6135C101.142 13.6621 101.172 13.7189 101.172 13.8133H101.667ZM101.336 13.1936C101.156 13.0684 100.842 12.9311 100.422 12.7795L100.257 13.2529C100.678 13.4049 100.936 13.5238 101.055 13.6075L101.336 13.1936ZM100.425 12.7807L100.047 12.6384L99.8747 13.1092L100.253 13.2517L100.425 12.7807ZM100.047 12.6384C99.6499 12.4885 99.3329 12.3503 99.0922 12.2239L98.8641 12.6697C99.1289 12.809 99.4666 12.9554 99.8747 13.1092L100.047 12.6384ZM99.0982 12.2273C98.8827 12.1058 98.6791 11.9191 98.4901 11.6577L98.0908 11.9548C98.3134 12.2628 98.5683 12.5032 98.8579 12.6663L99.0982 12.2273ZM98.4901 11.6577C98.3239 11.428 98.2292 11.1101 98.2292 10.6817H97.734C97.734 11.1833 97.8451 11.6151 98.0908 11.9548L98.4901 11.6577ZM98.2292 10.6817C98.2292 10.0136 98.4691 9.51748 98.9432 9.16105L98.6482 8.75755C98.0369 9.21724 97.734 9.86938 97.734 10.6817H98.2292ZM98.9437 9.16061C99.4429 8.78341 100.102 8.58411 100.943 8.58411V8.08183C100.025 8.08183 99.2527 8.30008 98.6476 8.75797L98.9437 9.16061ZM100.943 8.58411C101.603 8.58411 102.304 8.71522 103.05 8.98254L103.215 8.509C102.426 8.22592 101.668 8.08183 100.943 8.08183V8.58411ZM102.888 8.70618L102.621 10.4001L103.111 10.4793L103.377 8.78537L102.888 8.70618ZM102.991 10.2231C102.699 10.049 102.369 9.91285 102.004 9.81293L101.874 10.2978C102.202 10.3876 102.491 10.5078 102.74 10.6564L102.991 10.2231ZM102.012 9.81519C101.656 9.70478 101.313 9.64765 100.985 9.64765V10.15C101.256 10.15 101.55 10.1972 101.868 10.2955L102.012 9.81519ZM100.985 9.64765C100.652 9.64765 100.358 9.70345 100.122 9.83531L100.361 10.2754C100.499 10.1985 100.701 10.15 100.985 10.15V9.64765ZM100.117 9.83802C99.8668 9.9848 99.7271 10.2171 99.7271 10.5109H100.222C100.222 10.4061 100.26 10.3347 100.365 10.2727L100.117 9.83802ZM99.7271 10.5109C99.7271 10.781 99.841 11.0069 100.068 11.1509L100.33 10.725C100.258 10.6792 100.222 10.6204 100.222 10.5109H99.7271ZM100.068 11.1509C100.243 11.262 100.519 11.3787 100.877 11.5029L101.038 11.0277C100.684 10.9052 100.454 10.8036 100.33 10.725L100.068 11.1509ZM100.872 11.5011C101.154 11.6063 101.314 11.6663 101.356 11.6835L101.541 11.2172C101.489 11.1965 101.321 11.1331 101.042 11.0296L100.872 11.5011ZM101.355 11.6831C101.742 11.8419 102.059 11.9936 102.308 12.1382L102.554 11.702C102.279 11.5429 101.941 11.3816 101.542 11.2176L101.355 11.6831ZM102.308 12.1382C102.53 12.267 102.732 12.4645 102.912 12.7411L103.326 12.4656C103.112 12.135 102.855 11.8769 102.554 11.702L102.308 12.1382ZM102.913 12.7443C103.075 12.9858 103.166 13.312 103.166 13.7422H103.661C103.661 13.2422 103.555 12.8093 103.324 12.4626L102.913 12.7443ZM103.166 13.7422C103.166 14.4515 102.919 14.9519 102.444 15.2868L102.726 15.6993C103.355 15.2561 103.661 14.5891 103.661 13.7422H103.166ZM102.444 15.2868C101.946 15.638 101.27 15.8255 100.396 15.8255V16.3277C101.337 16.3277 102.121 16.1262 102.726 15.6993L102.444 15.2868Z" fill="#16558F"/>
<path d="M18.5209 0H2.40686C1.07759 0 0 1.09292 0 2.4411V18.7844C0 20.1326 1.07759 21.2255 2.40686 21.2255H18.5209C19.8502 21.2255 20.9278 20.1326 20.9278 18.7844V2.4411C20.9278 1.09292 19.8502 0 18.5209 0Z" fill="#16558F"/>
<path d="M15.9298 18.6086H9.65512C8.41575 18.6086 7.22714 18.1092 6.35076 17.2204C5.4744 16.3316 4.98206 15.1261 4.98206 13.8691V2.61792C5.82837 2.61819 6.63994 2.95928 7.23837 3.56623C7.83681 4.17317 8.17311 4.99629 8.17338 5.85463V13.2482C8.17324 13.5271 8.22731 13.8034 8.3325 14.061C8.43768 14.3188 8.59191 14.553 8.78637 14.7502C8.98083 14.9474 9.21171 15.1039 9.4658 15.2105C9.7199 15.3172 9.99228 15.372 10.2672 15.3719H12.7385C13.5848 15.3719 14.3966 15.713 14.9951 16.3199C15.5935 16.9269 15.9298 17.7502 15.9298 18.6086Z" fill="white"/>
<path d="M15.7643 7.41889L15.9464 7.60358L12.8081 10.7866C12.2579 11.3446 11.5116 11.6581 10.7335 11.6581C9.9554 11.6581 9.20922 11.3446 8.65902 10.7866L8.47693 10.6019L11.6188 7.41533C12.169 6.85732 12.9152 6.54382 13.6933 6.54382C14.4714 6.54382 15.2176 6.85732 15.7678 7.41533L15.7643 7.41889Z" fill="white"/>
<path d="M13.2179 9.73923C14.0439 9.73923 14.7135 9.0601 14.7135 8.22234C14.7135 7.38458 14.0439 6.70544 13.2179 6.70544C12.3919 6.70544 11.7223 7.38458 11.7223 8.22234C11.7223 9.0601 12.3919 9.73923 13.2179 9.73923Z" fill="#FFDD00"/>
<path d="M6.53615 18.5644C7.36215 18.5644 8.03176 17.8852 8.03176 17.0475C8.03176 16.2097 7.36215 15.5306 6.53615 15.5306C5.71014 15.5306 5.04053 16.2097 5.04053 17.0475C5.04053 17.8852 5.71014 18.5644 6.53615 18.5644Z" fill="#FFDD00"/>
</g>
<defs>
<clipPath id="clip0_3021_3783">
<rect width="104" height="22" fill="white"/>
</clipPath>
</defs>
</svg>
