<svg width="21" height="26" viewBox="0 0 21 26" fill="none" xmlns="http://www.w3.org/2000/svg">
<path d="M10.5 26C11.1189 26 11.7124 25.751 12.15 25.3077C12.5876 24.8644 12.8334 24.2632 12.8334 23.6364H8.16661C8.16661 24.2632 8.41245 24.8644 8.85005 25.3077C9.28764 25.751 9.88115 26 10.5 26ZM1.16645 21.2727H19.8336C20.0643 21.2727 20.2898 21.2033 20.4816 21.0735C20.6734 20.9436 20.8229 20.7591 20.9112 20.5431C20.9995 20.3272 21.0226 20.0896 20.9776 19.8604C20.9326 19.6312 20.8215 19.4206 20.6584 19.2554L18.6669 17.238V10.6364C18.6631 8.64914 17.9539 6.72956 16.6687 5.22812C15.3836 3.72667 13.6082 2.74353 11.6667 2.45818V1.18182C11.6667 0.86838 11.5438 0.56778 11.325 0.346146C11.1062 0.124513 10.8094 0 10.5 0C10.1906 0 9.89382 0.124513 9.67502 0.346146C9.45623 0.56778 9.33331 0.86838 9.33331 1.18182V2.45818C7.39184 2.74353 5.61644 3.72667 4.33127 5.22812C3.0461 6.72956 2.33689 8.64914 2.33314 10.6364V17.238L0.341593 19.2554C0.178478 19.4206 0.0674011 19.6312 0.0224046 19.8604C-0.022592 20.0896 0.000512122 20.3272 0.0887959 20.5431C0.17708 20.7591 0.326579 20.9436 0.518395 21.0735C0.710212 21.2033 0.935732 21.2727 1.16645 21.2727ZM4.32469 18.5628C4.5435 18.3412 4.66646 18.0407 4.66653 17.7273V10.6364C4.66653 9.06917 5.28113 7.56617 6.37511 6.458C7.4691 5.34984 8.95287 4.72727 10.5 4.72727C12.0471 4.72727 13.5309 5.34984 14.6249 6.458C15.7189 7.56617 16.3335 9.06917 16.3335 10.6364V17.7273C16.3335 18.0407 16.4565 18.3412 16.6753 18.5628L17.0172 18.9091H3.98285L4.32469 18.5628Z" fill="#323232"/>
</svg>
