<svg width="24" height="24" viewBox="0 0 24 24" fill="none" xmlns="http://www.w3.org/2000/svg">
<path d="M14.4 15.2V13.6C14.76 13.4216 15.7896 12.196 15.8976 11.2384C16.1808 11.2168 16.6256 10.9568 16.7568 9.93042C16.8272 9.37922 16.5472 9.06962 16.3776 8.97202C16.3776 8.97202 16.8 8.16962 16.8 7.20082C16.8 5.25842 16.0376 3.60082 14.4 3.60082C14.4 3.60082 13.8312 2.40082 12 2.40082C8.60642 2.40082 7.20002 4.57762 7.20002 7.20082C7.20002 8.08402 7.62242 8.97202 7.62242 8.97202C7.45282 9.06962 7.17282 9.38002 7.24322 9.93042C7.37442 10.9568 7.81922 11.2168 8.10242 11.2384C8.21042 12.196 9.24002 13.4216 9.60002 13.6V15.2C8.80002 17.6 2.40002 16 2.40002 21.6H21.6C21.6 16 15.2 17.6 14.4 15.2Z" fill="#ABA0A0"/>
</svg>
